<svg width="36" height="36" viewBox="0 0 36 36" fill="none" xmlns="http://www.w3.org/2000/svg">
<path d="M16.4348 4C15.3272 4 14.2506 4.13745 13.2218 4.3966C12.3821 4.60811 11.9486 5.32999 11.8091 5.93006C11.6439 6.64087 11.1958 7.28119 10.5126 7.67384C9.88441 8.03485 9.17422 8.11966 8.51922 7.96591C7.91723 7.8246 7.07671 7.8919 6.51421 8.54537C5.46841 9.76031 4.64343 11.1704 4.10214 12.7138C3.77898 13.6353 4.27967 14.4651 4.80833 14.8987C5.41856 15.3991 5.8051 16.1543 5.8051 17C5.8051 17.8457 5.41855 18.6008 4.80833 19.1013C4.27967 19.5349 3.77898 20.3647 4.10214 21.2862C4.64337 22.8295 5.46822 24.2394 6.51386 25.4542C7.0764 26.1078 7.91702 26.1751 8.51905 26.0337C9.17409 25.8799 9.88435 25.9647 10.5126 26.3257C11.1958 26.7184 11.644 27.3589 11.8091 28.0698C11.9486 28.6699 12.3821 29.3919 13.2219 29.6034C14.2507 29.8626 15.3273 30 16.4348 30C17.5423 30 18.619 29.8625 19.6478 29.6034C20.4875 29.3919 20.9211 28.6699 21.0606 28.0698C21.2257 27.3588 21.6739 26.7184 22.3571 26.3257C22.9853 25.9647 23.6955 25.8799 24.3506 26.0337C24.9526 26.175 25.7932 26.1078 26.3557 25.4542C27.4014 24.2393 28.2262 22.8294 28.7674 21.2861C29.0906 20.3647 28.5899 19.5349 28.0612 19.1013C27.451 18.6008 27.0645 17.8457 27.0645 17C27.0645 16.1543 27.451 15.3992 28.0612 14.8987C28.5899 14.4651 29.0906 13.6353 28.7674 12.7139C28.2261 11.1704 27.4012 9.76035 26.3554 8.54541C25.7929 7.89196 24.9524 7.82464 24.3504 7.96593C23.6955 8.11965 22.9853 8.03484 22.3572 7.67384C21.674 7.28119 21.2259 6.64088 21.0607 5.93008C20.9212 5.33003 20.4876 4.60818 19.648 4.39666C18.6191 4.13747 17.5424 4 16.4348 4Z" fill="#A8B3BD"/>
<circle cx="3.95652" cy="3.95652" r="3.95652" transform="matrix(-1 0 0 1 20.3911 13.0435)" fill="white"/>
<path d="M26 33.2435C29.3137 33.2435 32 30.5572 32 27.2435C32 23.9298 29.3137 21.2435 26 21.2435C22.6863 21.2435 20 23.9298 20 27.2435C20 30.5572 22.6863 33.2435 26 33.2435Z" fill="#707982"/>
<path d="M28.2502 26.9136C28.2502 26.2236 27.6952 25.6686 27.0052 25.6686H24.8752H23.7502L24.8752 24.6186" stroke="white" stroke-linecap="round" stroke-linejoin="round"/>
<path d="M23.7502 27.5658C23.7502 28.2558 24.3052 28.8108 24.9952 28.8108H27.1252M27.1252 28.8183H28.2502L27.1252 29.8683" stroke="white" stroke-linecap="round" stroke-linejoin="round"/>
</svg>
