<svg width="36" height="36" viewBox="0 0 36 36" fill="none" xmlns="http://www.w3.org/2000/svg">
<path d="M27.19 12.6417H9.81955C8.34275 12.6417 7.14557 14.0098 7.14557 15.6974L6.56006 27.7184C7.08006 30.2427 8.76059 31 10.8464 31H27.19C28.6668 31 29.864 29.6319 29.864 27.9442V15.6974C29.864 14.0098 28.6668 12.6417 27.19 12.6417Z" fill="#C12883"/>
<path d="M27.88 9.54367L7.94754 10.3468C6.87734 10.3468 6.00977 11.2165 6.00977 12.2894V14.1413C6.00977 15.2141 6.87734 16.0838 7.94754 16.0838H29.0623C30.1325 16.0838 31.0001 15.2141 31.0001 14.1413V12.2894C31 10.5534 28.92 9.54367 27.88 9.54367Z" fill="#C12883"/>
<path d="M11.6098 11.4258L14.0089 12.6175C14.0089 12.6175 14.0593 12.6384 14.0896 12.6384H23.1418C23.2124 12.6384 23.283 12.5966 23.3132 12.5339C23.7064 11.6871 23.3636 10.673 22.5471 10.2653L14.0996 6.05227C12.6682 5.34138 10.9545 5.95818 10.2691 7.44269C9.58358 8.92719 10.1783 10.7044 11.6098 11.4153V11.4258Z" fill="#C12883"/>
<path d="M13.863 12.6415H22.9153C22.9153 12.6415 22.9758 12.6415 22.9959 12.6206L25.3951 11.4288C26.8265 10.7179 27.4314 8.93024 26.7358 7.45619C26.0503 5.97169 24.1013 4.78352 22.68 5.50486L14.4679 10.2684C13.6513 10.6761 13.3086 11.6902 13.7017 12.537C13.732 12.5997 13.8025 12.6415 13.8731 12.6415H13.863Z" fill="#C12883"/>
<path d="M25.5389 11.609H8.69476C7.26271 11.609 6.10181 12.9224 6.10181 14.5425V26.2995C6.10181 27.9196 7.26271 29.233 8.69476 29.233H25.5389C26.9709 29.233 28.1318 27.9196 28.1318 26.2995V14.5425C28.1318 12.9224 26.9709 11.609 25.5389 11.609Z" fill="#FFC1E6"/>
<path d="M27.354 9.40598H6.87906C5.84128 9.40598 5 10.2409 5 11.2708V13.0487C5 14.0786 5.84128 14.9135 6.87906 14.9135H27.354C28.3917 14.9135 29.233 14.0786 29.233 13.0487V11.2708C29.233 10.2409 28.3917 9.40598 27.354 9.40598Z" fill="#FF64C0"/>
<path d="M10.4304 10.4417L12.7568 11.5858C12.7568 11.5858 12.8057 11.6059 12.835 11.6059H21.613C21.6814 11.6059 21.7499 11.5658 21.7792 11.5055C22.1604 10.6926 21.8281 9.71912 21.0363 9.32771L12.8448 5.28318C11.4568 4.60073 9.79501 5.19286 9.13031 6.61798C8.4656 8.0431 9.04233 9.74923 10.4304 10.4317V10.4417Z" fill="#FF64C0"/>
<path d="M12.6154 11.6088H21.3934C21.3934 11.6088 21.452 11.6088 21.4716 11.5887L23.798 10.4446C25.1861 9.76212 25.7726 8.04595 25.0981 6.63087C24.4334 5.20575 22.7619 4.60358 21.3836 5.29607L13.2019 9.33057C12.4101 9.72198 12.0778 10.6955 12.459 11.5084C12.4883 11.5686 12.5568 11.6088 12.6252 11.6088H12.6154Z" fill="#FF64C0"/>
</svg>
