<svg width="36" height="36" viewBox="0 0 36 36" fill="none" xmlns="http://www.w3.org/2000/svg">
<path d="M4.875 11.0084C4.875 10.551 5.11186 10.1261 5.50099 9.88559L15.9471 3.42896C16.3724 3.16607 16.9098 3.16607 17.3351 3.42896L27.7812 9.88559C28.1703 10.1261 28.4072 10.551 28.4072 11.0084V28.8376C28.4072 29.5666 27.8162 30.1576 27.0872 30.1576H6.195C5.46598 30.1576 4.875 29.5666 4.875 28.8376V11.0084Z" fill="#79D5CF"/>
<path d="M9.58105 16.4388C13.48 12.543 19.8014 12.543 23.7004 16.4388" stroke="#08B6AC" stroke-width="1.66154" stroke-linecap="round"/>
<path d="M13.053 19.0395C15.0163 17.0778 18.1994 17.0778 20.1627 19.0395" stroke="#08B6AC" stroke-width="1.66154" stroke-linecap="round"/>
<mask id="path-4-inside-1_999_28045" fill="white">
<ellipse cx="16.7363" cy="22.4192" rx="1.3547" ry="1.3536"/>
</mask>
<ellipse cx="16.7363" cy="22.4192" rx="1.3547" ry="1.3536" fill="#08B6AC"/>
<path d="M16.3771 22.4192C16.3771 22.2189 16.5392 22.0589 16.7363 22.0589V25.4867C18.4297 25.4867 19.8049 24.1146 19.8049 22.4192H16.3771ZM16.7363 22.0589C16.9334 22.0589 17.0955 22.2189 17.0955 22.4192H13.6677C13.6677 24.1146 15.0429 25.4867 16.7363 25.4867V22.0589ZM17.0955 22.4192C17.0955 22.6195 16.9334 22.7795 16.7363 22.7795V19.3516C15.0429 19.3516 13.6677 20.7237 13.6677 22.4192H17.0955ZM16.7363 22.7795C16.5392 22.7795 16.3771 22.6195 16.3771 22.4192H19.8049C19.8049 20.7237 18.4297 19.3516 16.7363 19.3516V22.7795Z" fill="#08B6AC" mask="url(#path-4-inside-1_999_28045)"/>
<path d="M25.3591 33.2435C28.6728 33.2435 31.3591 30.5572 31.3591 27.2435C31.3591 23.9298 28.6728 21.2435 25.3591 21.2435C22.0454 21.2435 19.3591 23.9298 19.3591 27.2435C19.3591 30.5572 22.0454 33.2435 25.3591 33.2435Z" fill="#059183"/>
<path d="M27.6094 26.9136C27.6094 26.2236 27.0544 25.6686 26.3644 25.6686H24.2344H23.1094L24.2344 24.6186" stroke="white" stroke-linecap="round" stroke-linejoin="round"/>
<path d="M23.1094 27.5658C23.1094 28.2558 23.6644 28.8108 24.3544 28.8108H26.4844M26.4844 28.8183H27.6094L26.4844 29.8683" stroke="white" stroke-linecap="round" stroke-linejoin="round"/>
</svg>
