<svg width="36" height="36" viewBox="0 0 36 36" fill="none" xmlns="http://www.w3.org/2000/svg">
<path d="M26.064 8.36324L10.689 6.54601C9.26678 6.30528 7.88984 7.43349 7.61352 9.06595L4.06719 23.3214L4.06721 23.3219C4.14632 25.394 4.19378 26.6373 6.15795 27.1276L20.9151 29.0938C22.3374 29.3346 23.8917 28.8861 24.2593 27.3447L27.9493 12.3094C28.328 11.0546 26.9159 8.34044 26.064 8.36324Z" fill="#258C86"/>
<path d="M14.7682 5.69817L14.0636 9.86047C13.9668 10.4329 13.4419 10.8231 12.8936 10.7303C12.3454 10.6375 11.9782 10.0963 12.0751 9.52387L12.7796 5.36157C12.8765 4.78913 13.1664 4.35915 13.9496 4.49172C14.4979 4.58452 14.8651 5.12574 14.7682 5.69817Z" fill="#258C86"/>
<path d="M23.3922 6.77121L22.6876 10.9335C22.5907 11.506 22.1003 11.902 21.5943 11.8163C21.0883 11.7307 20.7555 11.1953 20.8524 10.6229L21.5569 6.46057C21.6538 5.88814 21.7177 5.42283 22.6503 5.57774C23.1954 5.66831 23.4891 6.19878 23.3922 6.77121Z" fill="#258C86"/>
<path d="M24.8123 8.28555L10.5477 6.38545C9.21628 6.16008 7.92722 7.21628 7.66854 8.74454L4.05192 22.9069C3.79324 24.4351 4.09314 25.1342 5.42458 25.3595L20.4267 27.4473C21.7582 27.6727 22.9822 27.3789 23.3448 25.7096L26.7547 11.4608C27.0134 9.93251 26.1437 8.51092 24.8123 8.28555Z" fill="#79D5CF"/>
<path d="M21.995 15.5271L10.2737 14.1085" stroke="white" stroke-width="1.5" stroke-linecap="round"/>
<path d="M20.7855 19.2425L9.06419 17.824" stroke="white" stroke-width="1.5" stroke-linecap="round"/>
<path d="M19.9362 22.7422L8.21484 21.3237" stroke="white" stroke-width="1.5" stroke-linecap="round"/>
<path d="M7.15129 10.6819L7.75567 8.49732C7.99732 7.0697 9.27221 6.08319 10.605 6.30878L25.2236 7.95858C26.9438 8.32096 27.071 9.7126 26.8314 11.2185L26.3697 13.058" fill="#08B6AC"/>
<path d="M14.2835 5.62187L13.624 9.51849C13.5332 10.0544 13.059 10.4226 12.5667 10.3393C12.0745 10.2559 11.7478 9.75217 11.8385 9.21628L12.4981 5.31965C12.5888 4.78375 13.063 4.41556 13.5553 4.49888C14.0476 4.5822 14.3742 5.08597 14.2835 5.62187Z" fill="#08B6AC"/>
<path d="M22.8763 6.69617L22.2168 10.5928C22.126 11.1287 21.6669 11.4994 21.1932 11.4193C20.7195 11.3391 20.408 10.8379 20.4987 10.302L21.1582 6.40536C21.249 5.86946 21.7081 5.4987 22.1818 5.57888C22.6555 5.65905 22.967 6.16027 22.8763 6.69617Z" fill="#08B6AC"/>
<path d="M25.7527 33.337C29.0664 33.337 31.7527 30.6507 31.7527 27.337C31.7527 24.0233 29.0664 21.337 25.7527 21.337C22.439 21.337 19.7527 24.0233 19.7527 27.337C19.7527 30.6507 22.439 33.337 25.7527 33.337Z" fill="#008D85"/>
<path d="M22.7527 26.8996L25.0245 29.337L28.7527 25.337" stroke="white" stroke-width="1.4" stroke-linecap="round" stroke-linejoin="round"/>
</svg>
