<svg width="36" height="36" viewBox="0 0 36 36" fill="none" xmlns="http://www.w3.org/2000/svg">
<path d="M27.19 12.6416H9.81955C8.34275 12.6416 7.14557 14.0097 7.14557 15.6973L6.56006 27.7183C7.08006 30.2426 8.76059 30.9999 10.8464 30.9999H27.19C28.6668 30.9999 29.864 29.6318 29.864 27.9442V15.6973C29.864 14.0097 28.6668 12.6416 27.19 12.6416Z" fill="#C12883"/>
<path d="M27.88 9.54395L7.94754 10.3471C6.87734 10.3471 6.00977 11.2168 6.00977 12.2896V14.1416C6.00977 15.2144 6.87734 16.0841 7.94754 16.0841H29.0623C30.1325 16.0841 31.0001 15.2144 31.0001 14.1416V12.2896C31 10.5537 28.92 9.54395 27.88 9.54395Z" fill="#C12883"/>
<path d="M11.61 11.4258L14.0092 12.6176C14.0092 12.6176 14.0596 12.6385 14.0898 12.6385H23.1421C23.2127 12.6385 23.2832 12.5967 23.3135 12.5339C23.7066 11.6871 23.3639 10.6731 22.5473 10.2654L14.0999 6.0523C12.6685 5.34141 10.9548 5.95821 10.2693 7.44272C9.58382 8.92722 10.1786 10.7044 11.61 11.4153V11.4258Z" fill="#C12883"/>
<path d="M13.8633 12.6415H22.9155C22.9155 12.6415 22.976 12.6415 22.9962 12.6206L25.3954 11.4288C26.8268 10.7179 27.4316 8.93027 26.7361 7.45623C26.0506 5.97172 24.1015 4.78355 22.6802 5.50489L14.4681 10.2684C13.6516 10.6761 13.3088 11.6902 13.702 12.537C13.7322 12.5997 13.8028 12.6415 13.8733 12.6415H13.8633Z" fill="#C12883"/>
<path d="M25.5386 11.6089H8.69452C7.26247 11.6089 6.10156 12.9223 6.10156 14.5424V26.2994C6.10156 27.9195 7.26247 29.2329 8.69452 29.2329H25.5386C26.9707 29.2329 28.1316 27.9195 28.1316 26.2994V14.5424C28.1316 12.9223 26.9707 11.6089 25.5386 11.6089Z" fill="#FFC1E6"/>
<path d="M27.354 9.40576H6.87906C5.84128 9.40576 5 10.2407 5 11.2706V13.0484C5 14.0784 5.84128 14.9133 6.87906 14.9133H27.354C28.3917 14.9133 29.233 14.0784 29.233 13.0484V11.2706C29.233 10.2407 28.3917 9.40576 27.354 9.40576Z" fill="#FF64C0"/>
<path d="M10.4304 10.4417L12.7568 11.5858C12.7568 11.5858 12.8057 11.6059 12.835 11.6059H21.613C21.6814 11.6059 21.7499 11.5658 21.7792 11.5055C22.1604 10.6926 21.8281 9.71912 21.0363 9.32771L12.8448 5.28318C11.4568 4.60073 9.79501 5.19286 9.13031 6.61798C8.4656 8.0431 9.04233 9.74923 10.4304 10.4317V10.4417Z" fill="#FF64C0"/>
<path d="M12.6156 11.6085H21.3936C21.3936 11.6085 21.4523 11.6085 21.4718 11.5885L23.7983 10.4444C25.1863 9.76191 25.7728 8.04574 25.0984 6.63065C24.4337 5.20553 22.7621 4.60337 21.3838 5.29586L13.2021 9.33036C12.4104 9.72176 12.078 10.6953 12.4592 11.5082C12.4886 11.5684 12.557 11.6085 12.6254 11.6085H12.6156Z" fill="#FF64C0"/>
</svg>
