<svg width="36" height="36" viewBox="0 0 36 36" fill="none" xmlns="http://www.w3.org/2000/svg">
<path d="M24.6723 24.7027L5.21413 22.8472L5.89388 15.7189C6.2796 11.674 9.87131 8.70771 13.9162 9.09343L18.7266 9.55214C22.7715 9.93786 25.7378 13.5296 25.3521 17.5745L24.6723 24.7027Z" fill="#FF87CF"/>
<path fill-rule="evenodd" clip-rule="evenodd" d="M16.3537 8.36383C17.0943 8.43445 17.7519 7.89134 17.8226 7.15076C17.8932 6.41018 17.3501 5.75257 16.6095 5.68194C15.8689 5.61132 15.2113 6.15443 15.1407 6.89501C15.0701 7.63559 15.6132 8.29321 16.3537 8.36383ZM16.1314 10.6955C18.1597 10.889 19.9609 9.40146 20.1543 7.37311C20.3477 5.34475 18.8602 3.54365 16.8318 3.35022C14.8035 3.1568 13.0024 4.64431 12.809 6.67266C12.6155 8.70102 14.103 10.5021 16.1314 10.6955Z" fill="#FF87CF"/>
<ellipse cx="8.50656" cy="1.61795" rx="8.50656" ry="1.61795" transform="matrix(0.994754 0.102295 -0.0883311 0.996091 6.07617 25.6997)" fill="#C12883"/>
<circle cx="14.6191" cy="28.4828" r="4.54634" transform="rotate(5.44724 14.6191 28.4828)" fill="#FFCB45"/>
<path fill-rule="evenodd" clip-rule="evenodd" d="M14.2477 30.8943C20.6103 31.5019 25.8918 30.6998 26.0442 29.1029C26.1967 27.506 21.1625 25.7188 14.7999 25.1113C8.43737 24.5037 3.15587 25.3057 3.00338 26.9026C2.85088 28.4996 7.88513 30.2867 14.2477 30.8943ZM14.3619 29.7064C18.7286 30.1234 22.3348 29.7665 22.4167 28.9093C22.4985 28.052 19.025 27.0191 14.6583 26.6021C10.2916 26.1851 6.68536 26.542 6.6035 27.3992C6.52164 28.2564 9.99518 29.2894 14.3619 29.7064Z" fill="#FF64C0"/>
<path fill-rule="evenodd" clip-rule="evenodd" d="M26.026 29.1908C25.9889 27.6169 21.0236 25.8842 14.7786 25.2878C8.61274 24.699 3.46215 25.434 3.01074 26.9333L3.32355 23.817H3.32425C3.51512 22.2322 8.78057 21.4386 15.1188 22.0439C21.4025 22.6439 26.3906 24.3944 26.3664 25.976L26.3737 25.9761L26.0446 29.1908H26.026Z" fill="#FFBAE4"/>
<path fill-rule="evenodd" clip-rule="evenodd" d="M10.2806 27.1172C10.1868 27.4158 10.1226 27.7287 10.0916 28.0528C9.85329 30.5523 11.6863 32.7718 14.1859 33.0102C16.6854 33.2486 18.9049 31.4155 19.1433 28.916C19.1653 28.6849 19.1696 28.4563 19.1574 28.2313L10.2806 27.1172Z" fill="#FFCB45"/>
<path d="M20.1597 16.2592L24.891 8.82428C25.6198 7.6791 27.2951 7.68964 28.0094 8.8439L32.6103 16.2789C33.3692 17.5052 32.4872 19.0883 31.045 19.0883H21.7127C20.2602 19.0883 19.3799 17.4847 20.1597 16.2592Z" fill="#EF4447"/>
<rect x="25.6372" y="10.7241" width="1.46412" height="4.58164" rx="0.732059" fill="white"/>
<rect x="25.4678" y="16.2061" width="1.76656" height="1.75831" rx="0.879155" fill="white"/>
</svg>
