<svg width="36" height="36" viewBox="0 0 36 36" fill="none" xmlns="http://www.w3.org/2000/svg">
<path d="M20.6103 5.00635H10.5478C8.65429 5.00635 7.11926 6.54137 7.11926 8.43492V27.8635C7.11926 29.757 8.65429 31.2921 10.5478 31.2921H24.2621C26.1557 31.2921 27.6907 29.757 27.6907 27.8635V12.0867C27.6907 11.2696 27.3661 10.486 26.7884 9.9083L22.7887 5.90865C22.2109 5.33091 21.4273 5.00635 20.6103 5.00635Z" fill="#88A6FF"/>
<mask id="mask0_928_158847" style="mask-type:luminance" maskUnits="userSpaceOnUse" x="7" y="5" width="21" height="27">
<path d="M20.6103 5.00635H10.5478C8.65429 5.00635 7.11926 6.54137 7.11926 8.43492V27.8635C7.11926 29.757 8.65429 31.2921 10.5478 31.2921H24.2621C26.1557 31.2921 27.6907 29.757 27.6907 27.8635V12.0867C27.6907 11.2696 27.3661 10.486 26.7884 9.9083L22.7887 5.90865C22.2109 5.33091 21.4273 5.00635 20.6103 5.00635Z" fill="white"/>
</mask>
<g mask="url(#mask0_928_158847)">
<path d="M37.3583 -13.2869C39.252 -13.2869 40.7869 -11.752 40.7869 -9.85836V9.57022C40.7869 11.4639 39.252 12.9988 37.3583 12.9988H23.644C21.7503 12.9988 20.2155 11.4639 20.2155 9.57022V-9.85836C20.2155 -11.752 21.7503 -13.2869 23.644 -13.2869H37.3583Z" fill="#4472FF"/>
</g>
<path d="M14.0568 18.7206H20.7655" stroke="white" stroke-width="1.4" stroke-linecap="round" stroke-linejoin="round"/>
<path d="M17.405 15.3635L17.405 22.0722" stroke="white" stroke-width="1.4" stroke-linecap="round" stroke-linejoin="round"/>
<path d="M30.1961 21.7012L28.7016 20.2132C28.2332 19.7467 27.4746 19.747 27.0062 20.2137L21.43 25.7751C21.1115 26.0927 20.9244 26.5178 20.9058 26.9665L20.8344 28.6439C20.8128 29.1531 21.2219 29.5777 21.7328 29.5777L23.3839 29.5778C23.8684 29.5778 24.3326 29.3828 24.6709 29.037L30.2069 23.3806C30.6657 22.9123 30.6609 22.1636 30.1961 21.7012Z" fill="#4472FF"/>
</svg>
