<svg width="36" height="36" viewBox="0 0 36 36" fill="none" xmlns="http://www.w3.org/2000/svg">
<path d="M25.648 8.36315L10.273 6.54592C8.85077 6.30519 7.47382 7.4334 7.1975 9.06586L3.65117 23.3213L3.65119 23.3218C3.7303 25.3939 3.77777 26.6372 5.74194 27.1275L20.4991 29.0938C21.9214 29.3345 23.4757 28.886 23.8433 27.3446L27.5333 12.3093C27.912 11.0545 26.4998 8.34034 25.648 8.36315Z" fill="#258C86"/>
<path d="M14.3519 5.69848L13.6474 9.86078C13.5505 10.4332 13.0256 10.8234 12.4774 10.7306C11.9291 10.6378 11.5619 10.0966 11.6588 9.52418L12.3633 5.36188C12.4602 4.78944 12.7501 4.35945 13.5334 4.49203C14.0816 4.58483 14.4488 5.12604 14.3519 5.69848Z" fill="#258C86"/>
<path d="M22.9764 6.77115L22.2718 10.9335C22.175 11.5059 21.6845 11.9019 21.1785 11.8163C20.6725 11.7306 20.3397 11.1953 20.4366 10.6228L21.1412 6.46051C21.2381 5.88808 21.3019 5.42276 22.2345 5.57768C22.7797 5.66824 23.0733 6.19872 22.9764 6.77115Z" fill="#258C86"/>
<path d="M24.3963 8.28576L10.1317 6.38566C8.80026 6.16029 7.51121 7.21649 7.25252 8.74475L3.63591 22.9071C3.37723 24.4353 3.67712 25.1344 5.00857 25.3597L20.0107 27.4475C21.3421 27.6729 22.5662 27.3791 22.9288 25.7098L26.3387 11.461C26.5974 9.93273 25.7277 8.51113 24.3963 8.28576Z" fill="#79D5CF"/>
<path d="M21.5787 15.5272L9.8574 14.1087" stroke="white" stroke-width="1.5" stroke-linecap="round"/>
<path d="M20.3693 19.2425L8.64793 17.824" stroke="white" stroke-width="1.5" stroke-linecap="round"/>
<path d="M19.5202 22.742L7.79882 21.3235" stroke="white" stroke-width="1.5" stroke-linecap="round"/>
<path d="M6.73551 10.6818L7.3399 8.49726C7.58155 7.06963 8.85644 6.08313 10.1892 6.30872L24.8078 7.95852C26.5281 8.3209 26.6552 9.71254 26.4156 11.2184L25.9539 13.0579" fill="#08B6AC"/>
<path d="M13.8675 5.62175L13.2079 9.51837C13.1172 10.0543 12.643 10.4225 12.1507 10.3391C11.6584 10.2558 11.3318 9.75205 11.4225 9.21615L12.082 5.31953C12.1728 4.78363 12.647 4.41543 13.1393 4.49876C13.6315 4.58208 13.9582 5.08585 13.8675 5.62175Z" fill="#08B6AC"/>
<path d="M22.4603 6.69629L21.8007 10.5929C21.71 11.1288 21.2509 11.4996 20.7772 11.4194C20.3035 11.3392 19.992 10.838 20.0827 10.3021L20.7422 6.40548C20.8329 5.86958 21.2921 5.49882 21.7658 5.579C22.2394 5.65918 22.551 6.16039 22.4603 6.69629Z" fill="#08B6AC"/>
<path d="M25.3369 33.3369C28.6506 33.3369 31.3369 30.6506 31.3369 27.3369C31.3369 24.0232 28.6506 21.3369 25.3369 21.3369C22.0232 21.3369 19.3369 24.0232 19.3369 27.3369C19.3369 30.6506 22.0232 33.3369 25.3369 33.3369Z" fill="#008D85"/>
<path d="M22.3364 26.8994L24.6083 29.3369L28.3364 25.3369" stroke="white" stroke-width="1.4" stroke-linecap="round" stroke-linejoin="round"/>
</svg>
