<svg width="36" height="36" viewBox="0 0 36 36" fill="none" xmlns="http://www.w3.org/2000/svg">
<rect x="7.71436" y="5" width="20.5714" height="19.2174" rx="2.45922" fill="#88A6FF"/>
<path d="M14.1292 10.2981L15.8194 15.5144C15.9213 15.8289 16.3663 15.8289 16.4682 15.5144L18.1585 10.2981L19.8497 15.3544C19.9535 15.6648 20.3927 15.6648 20.4965 15.3544L22.1878 10.2981" stroke="white" stroke-width="1.2" stroke-linecap="round" stroke-linejoin="round"/>
<path d="M13.1648 11.614L22.8351 11.614" stroke="white" stroke-width="1.2" stroke-linecap="round"/>
<path d="M6 18.5542C6 17.5194 7.08788 16.8456 8.01429 17.3065L16.9046 21.7295C17.5945 22.0727 18.4055 22.0727 19.0954 21.7295L27.9857 17.3065C28.9121 16.8456 30 17.5194 30 18.5542V28.5408C30 29.899 28.899 31 27.5408 31H8.45923C7.10103 31 6 29.899 6 28.5408V18.5542Z" fill="#4472FF"/>
</svg>
