<svg width="36" height="36" viewBox="0 0 36 36" fill="none" xmlns="http://www.w3.org/2000/svg">
<path d="M30.3866 7.52927L28.2695 7L28.7941 10.3224L26.346 25.0108H20.0508L17.7775 25.5353L15.2405 29.1407L17.6987 29.408C18.3341 29.4771 18.9663 29.2528 19.4161 28.7988L20.0508 28.1583H28.0061C29.2517 28.1583 30.2988 27.2229 30.4387 25.9852L32.2255 10.1793C32.3634 8.95991 31.5771 7.82688 30.3866 7.52927Z" fill="#A62123"/>
<path d="M30.4389 7.52927L28.3218 7L28.8464 10.3224L26.3982 25.0108L20.103 28.1583H28.0583C29.304 28.1583 30.351 27.2229 30.491 25.9852L32.2778 10.1793C32.4156 8.95991 31.6294 7.82688 30.4389 7.52927Z" fill="#A52123"/>
<path d="M20.0532 28.158L18.3278 26.6894L18.137 26.54L17.1656 26.9657L15.293 28.5786V29.145L17.8717 29.424C18.4009 29.4812 18.9274 29.2943 19.302 28.9162L20.0532 28.158Z" fill="#790E10"/>
<path d="M30.156 9.32192L28.5073 24.7097C28.393 25.776 27.4932 26.5845 26.4208 26.5845H18.8952C18.538 26.5845 18.1943 26.7211 17.9347 26.9664L15.8295 28.9545C15.5029 29.263 14.9742 29.1879 14.7464 28.8006L13.8484 27.2741C13.5971 26.8469 13.1384 26.5845 12.6426 26.5845H6.33516C5.0878 26.5845 4.11585 25.5029 4.24874 24.2626L5.89747 8.87482C6.01171 7.80856 6.91153 7 7.98389 7H28.0696C29.3169 7 30.2889 8.08166 30.156 9.32192Z" fill="#FC6062"/>
<mask id="mask0_739_17952" style="mask-type:alpha" maskUnits="userSpaceOnUse" x="4" y="7" width="27" height="23">
<path d="M30.156 9.3229L28.5073 24.7107C28.393 25.7769 27.4932 26.5855 26.4208 26.5855H18.8952C18.538 26.5855 18.1943 26.7221 17.9347 26.9674L15.8295 28.9555C15.5029 29.264 14.9742 29.1889 14.7464 28.8016L13.8484 27.2751C13.5971 26.8478 13.1384 26.5855 12.6426 26.5855H6.33516C5.0878 26.5855 4.11585 25.5038 4.24874 24.2636L5.89747 8.87579C6.01171 7.80953 6.91153 7.00098 7.98389 7.00098H28.0696C29.3169 7.00098 30.2889 8.08263 30.156 9.3229Z" fill="#EF4447"/>
</mask>
<g mask="url(#mask0_739_17952)">
<path d="M23.0044 28.9161L20.9563 6.22703L7.87619 4.03223L3.20148 8.18741L2.58764 27.6412L11.3704 28.9161L16.0451 31.7964L23.0044 28.9161Z" fill="#EF4447"/>
</g>
<path d="M19.1571 10.4644L18.5398 10.1694L18.3974 10.8579L17.7988 16.7152L15.9377 17.5527L16.288 17.9207C16.4117 18.0507 16.5807 18.1281 16.76 18.137L18.1725 18.2069C18.4674 18.2215 18.7229 18.0045 18.7562 17.7112L19.5072 11.0963C19.5371 10.8326 19.3966 10.5788 19.1571 10.4644Z" fill="#D9D9D9"/>
<path d="M18.9686 10.9076C19.0168 10.5045 18.7129 10.1451 18.3075 10.1257L17.3025 10.0777C16.9359 10.0602 16.6182 10.3289 16.5746 10.6932L15.8126 17.0553C15.7644 17.4584 16.0683 17.8177 16.4737 17.8371L17.6739 17.8945C17.9304 17.9068 18.1529 17.7187 18.1834 17.4637L18.9686 10.9076Z" fill="white"/>
<path d="M17.0021 19.0219L17.5557 19.1368L17.8279 19.3095L17.6984 19.5902L17.1524 19.4202L17.0021 19.0219Z" fill="#D9D9D9"/>
<path d="M16.2385 21.8344L16.7921 21.9493L17.0642 22.122L16.973 22.391L16.2877 22.253L16.2385 21.8344Z" fill="#D9D9D9"/>
<ellipse cx="1.4075" cy="1.65355" rx="1.4075" ry="1.65355" transform="matrix(-0.994667 -0.103139 -0.103144 0.994667 18.8242 19.2578)" fill="#D9D9D9"/>
<ellipse cx="1.4075" cy="1.65355" rx="1.4075" ry="1.65355" transform="matrix(-0.994127 -0.108218 -0.108223 0.994127 18.2603 19.1494)" fill="white"/>
</svg>
