<svg width="20" height="20" viewBox="0 0 20 20" fill="none" xmlns="http://www.w3.org/2000/svg">
<g clip-path="url(#clip0_760_133292)">
<path d="M16.4895 14.8946C16.4895 13.3742 16.4895 11.5667 16.4895 9.83804C16.4895 6.24769 13.5789 3.33746 9.9886 3.33746V3.33746C6.39825 3.33746 3.4877 6.24801 3.4877 9.83836V15.3352" stroke="#7F8A94" stroke-width="1.85714" stroke-linecap="round"/>
<path d="M13.0022 12.3375C13.0022 11.509 13.6738 10.8375 14.5022 10.8375H15.2522C16.0807 10.8375 16.7522 11.509 16.7522 12.3375V15.3375C16.7522 16.1659 16.0807 16.8375 15.2522 16.8375H14.5022C13.6738 16.8375 13.0022 16.1659 13.0022 15.3375V12.3375Z" fill="#7F8A94" stroke="#7F8A94" stroke-width="1.35"/>
<path d="M6.98553 12.3375C6.98553 11.509 6.31396 10.8375 5.48553 10.8375H4.73553C3.90711 10.8375 3.23553 11.509 3.23553 12.3375V15.3375C3.23553 16.1659 3.90711 16.8375 4.73553 16.8375H5.48553C6.31396 16.8375 6.98553 16.1659 6.98553 15.3375V12.3375Z" fill="#7F8A94" stroke="#7F8A94" stroke-width="1.35"/>
</g>
<defs>
<clipPath id="clip0_760_133292">
<rect width="20" height="20" fill="white"/>
</clipPath>
</defs>
</svg>
