<svg width="28" height="28" viewBox="0 0 28 28" fill="none" xmlns="http://www.w3.org/2000/svg">
<rect x="5" y="2" width="18" height="17" rx="2.45922" fill="#88A6FF"/>
<path d="M10.6133 6.68701L12.0514 11.1738C12.1526 11.4897 12.5996 11.4897 12.7008 11.1738L14.1389 6.68701L15.578 11.0366C15.6812 11.3485 16.1223 11.3485 16.2255 11.0366L17.6646 6.68701" stroke="white" stroke-width="1.2" stroke-linecap="round" stroke-linejoin="round"/>
<path d="M9.76953 7.85107L18.2311 7.85108" stroke="white" stroke-width="1.2" stroke-linecap="round"/>
<path d="M3.5 14.2608C3.5 13.2234 4.59297 12.5497 5.51974 13.0159L12.895 16.7254C13.5902 17.0751 14.4098 17.0751 15.105 16.7254L22.4803 13.0159C23.407 12.5497 24.5 13.2234 24.5 14.2608V22.5408C24.5 23.899 23.399 25 22.0408 25H5.95923C4.60103 25 3.5 23.899 3.5 22.5408V14.2608Z" fill="#4472FF"/>
</svg>
