<svg width="28" height="28" viewBox="0 0 28 28" fill="none" xmlns="http://www.w3.org/2000/svg">
<path d="M3 11.8051C3 11.0192 3.36638 10.2772 3.99085 9.79769L11.9362 3.70025C13.153 2.76658 14.847 2.76658 16.0638 3.70025L24.0091 9.79769C24.6336 10.2772 25 11.0192 25 11.8051V16.4675C25 17.8663 23.8636 19 22.4615 19H5.53846C4.13639 19 3 17.8663 3 16.4675V11.8051Z" fill="#8155F8"/>
<path d="M19.8281 5H8.17195C6.97241 5 6 5.92951 6 7.07613V17.9239C6 19.0705 6.97241 20 8.17195 20H19.8281C21.0276 20 22 19.0705 22 17.9239V7.07613C22 5.92951 21.0276 5 19.8281 5Z" fill="#D3C3FF"/>
<path d="M8.53906 12.6797H19.5391" stroke="#A687FF" stroke-width="1.442" stroke-linecap="round" stroke-linejoin="round"/>
<path d="M8.53906 9.59375H14.5391" stroke="#A687FF" stroke-width="1.4" stroke-linecap="round" stroke-linejoin="round"/>
<path d="M8.53906 18.6558H14.3011" stroke="white" stroke-width="1.41645" stroke-linecap="round" stroke-linejoin="round"/>
<path d="M3 13L7.77062 17.1632C8.23939 17.5728 8.85454 17.8 9.49254 17.8H18.5075C19.1455 17.8 19.7606 17.5728 20.2294 17.1632L25 13V22.6C25 23.9256 23.8636 25 22.4615 25H5.53846C4.13639 25 3 23.9256 3 22.6V13Z" fill="#A687FF"/>
<path d="M22 27C24.7614 27 27 24.7614 27 22C27 19.2386 24.7614 17 22 17C19.2386 17 17 19.2386 17 22C17 24.7614 19.2386 27 22 27Z" fill="#8155F8"/>
<path d="M24.0716 21.8494C24.0716 21.2595 23.5928 20.7815 23.0021 20.7815H21.1768M21.1768 20.7815H20.2119L21.1768 19.8818V20.7815Z" stroke="white" stroke-width="1.11111" stroke-linecap="round" stroke-linejoin="round"/>
<path d="M20.2119 22.4165C20.2119 23.0064 20.6907 23.4845 21.2814 23.4845H23.1066M23.1066 23.4845H24.0716L23.1066 24.3841V23.4845Z" stroke="white" stroke-width="1.11111" stroke-linecap="round" stroke-linejoin="round"/>
</svg>
