<svg width="28" height="28" viewBox="0 0 28 28" fill="none" xmlns="http://www.w3.org/2000/svg">
<path d="M16.0541 25.1399C22.0938 25.1399 26.9998 20.2361 26.9998 14.1991C26.9998 8.16213 22.0938 3.26807 16.0541 3.26807C10.0144 3.26807 5.11816 8.1719 5.11816 14.2089C5.11816 20.2459 10.0242 25.1497 16.0639 25.1497L16.0541 25.1399Z" fill="#FF8F98"/>
<path d="M11.9408 24.9302C17.9778 24.9302 22.8816 20.0264 22.8816 13.9894C22.8816 7.95241 17.9778 3.05835 11.9408 3.05835C5.90383 3.05835 1 7.96218 1 13.9992C1 20.0362 5.90383 24.94 11.9408 24.94V24.9302Z" fill="#FF515E"/>
<path d="M9.03516 16.9838L15.059 10.96" stroke="white" stroke-width="1.4" stroke-linecap="round" stroke-linejoin="round"/>
<path d="M9.20476 12.4095C9.87013 12.4095 10.4095 11.8701 10.4095 11.2048C10.4095 10.5394 9.87013 10 9.20476 10C8.53939 10 8 10.5394 8 11.2048C8 11.8701 8.53939 12.4095 9.20476 12.4095Z" fill="white"/>
<path d="M14.7013 18.1605C15.3667 18.1605 15.9061 17.6211 15.9061 16.9557C15.9061 16.2904 15.3667 15.751 14.7013 15.751C14.036 15.751 13.4966 16.2904 13.4966 16.9557C13.4966 17.6211 14.036 18.1605 14.7013 18.1605Z" fill="white"/>
</svg>
