<svg width="28" height="28" viewBox="0 0 28 28" fill="none" xmlns="http://www.w3.org/2000/svg">
<path d="M13.5039 23.0952C13.5039 23.6475 13.9547 24.0952 14.5107 24.0952H23.4971C24.0531 24.0952 24.5039 23.6475 24.5039 23.0952C24.5039 22.5429 24.0531 22.0952 23.4971 22.0952H14.5107C13.9547 22.0952 13.5039 22.5429 13.5039 23.0952Z" fill="#707982"/>
<path d="M21.3333 11.8811C22.2302 10.9649 22.2208 9.50013 21.3122 8.59535L18.3905 5.68409C17.4748 4.77149 15.9916 4.77207 15.076 5.68525L4.17459 16.5659C4.0053 16.7348 3.8569 16.9204 3.72705 17.1172L10.0058 23.374C10.1857 23.2487 10.3551 23.1067 10.5105 22.9477L21.3333 11.8811Z" fill="#A8B3BD"/>
<path d="M3.14108 18.891L3.0016 22.1729C2.95938 23.1691 3.75899 23.9997 4.75789 23.9998L7.98564 23.9999C8.71038 23.9999 9.41136 23.776 9.99704 23.3681L3.71829 17.1113C3.37058 17.6382 3.16756 18.2519 3.14108 18.891Z" fill="#707982"/>
</svg>
