<svg width="28" height="28" viewBox="0 0 28 28" fill="none" xmlns="http://www.w3.org/2000/svg">
<path d="M21.646 9H6.35402C5.05393 9 4 10.1924 4 11.6632V22.3368C4 23.8076 5.05393 25 6.35402 25H21.646C22.9461 25 24 23.8076 24 22.3368V11.6632C24 10.1924 22.9461 9 21.646 9Z" fill="#88A6FF"/>
<path d="M23.2941 7H4.70591C3.76376 7 3 7.75797 3 8.69298V10.307C3 11.242 3.76376 12 4.70591 12H23.2941C24.2362 12 25 11.242 25 10.307V8.69298C25 7.75797 24.2362 7 23.2941 7Z" fill="#4472FF"/>
<path d="M7.93019 7.94028L10.0423 8.97897C10.0423 8.97897 10.0866 8.99719 10.1133 8.99719H18.0824C18.1445 8.99719 18.2066 8.96075 18.2332 8.90608C18.5793 8.16807 18.2776 7.28427 17.5588 6.92893L10.1221 3.25709C8.86199 2.63752 7.35336 3.17508 6.74991 4.46889C6.14646 5.76269 6.67004 7.3116 7.93019 7.93117V7.94028Z" fill="#4472FF"/>
<path d="M9.91432 8.99987H17.8834C17.8834 8.99987 17.9367 8.99987 17.9544 8.98164L20.0665 7.94296C21.3266 7.32339 21.8591 5.76536 21.2468 4.48067C20.6433 3.18687 19.1258 2.64019 17.8745 3.26887L10.4468 6.93161C9.72796 7.28695 9.42623 8.17074 9.77233 8.90875C9.79895 8.96342 9.86107 8.99987 9.92319 8.99987H9.91432Z" fill="#4472FF"/>
<path d="M14.249 15C14.249 17.3241 14.249 18.1759 14.249 20.5" stroke="white" stroke-width="1.4" stroke-linecap="round"/>
<path d="M17 17.7512C14.6759 17.7512 13.8241 17.7512 11.5 17.7512" stroke="white" stroke-width="1.4" stroke-linecap="round"/>
</svg>
