<svg width="28" height="28" viewBox="0 0 28 28" fill="none" xmlns="http://www.w3.org/2000/svg">
<path d="M23.1215 5H4.88146C3.29088 5 2.00146 6.20883 2.00146 7.7V20.3C2.00146 21.7912 3.29088 23 4.88146 23H23.1215C24.712 23 26.0015 21.7912 26.0015 20.3V7.7C26.0015 6.20883 24.712 5 23.1215 5Z" fill="#FFC183"/>
<path d="M2.00146 7.5C2.00146 6.11918 3.29084 5 4.88146 5H23.1215C24.7121 5 26.0015 6.11918 26.0015 7.5V10H2.00146V7.5Z" fill="#EE8B28"/>
<path d="M4.98204 18.2266H8.90432C9.44588 18.2266 9.88489 18.6631 9.88489 19.2016C9.88489 19.7401 9.44588 20.1766 8.90432 20.1766H4.98204C4.44048 20.1766 4.00146 19.7401 4.00146 19.2016C4.00146 18.6631 4.44048 18.2266 4.98204 18.2266Z" fill="#EE8B28"/>
<path opacity="0.6" d="M19.3924 16.8456C18.89 16.3253 18.185 16 17.4024 16C15.8779 16 14.6421 17.2288 14.6421 18.7446C14.6421 20.2604 15.8779 21.4892 17.4024 21.4892C18.185 21.4892 18.89 21.1639 19.3924 20.6436C18.9162 20.1504 18.6221 19.4822 18.6221 18.7446C18.6221 18.007 18.9162 17.3388 19.3924 16.8456Z" fill="#EE8B28"/>
<path d="M21.3664 16C20.5838 16 19.8788 16.3253 19.3765 16.8456C19.8526 17.3388 20.1468 18.007 20.1468 18.7446C20.1468 19.4822 19.8526 20.1504 19.3765 20.6436C19.8788 21.1639 20.5838 21.4892 21.3664 21.4892C22.8909 21.4892 24.1267 20.2604 24.1267 18.7446C24.1267 17.2288 22.8909 16 21.3664 16Z" fill="#EE8B28"/>
<path opacity="0.6" d="M19.3812 16.8203C18.905 17.3135 18.6108 17.9817 18.6108 18.7193C18.6108 19.4569 18.905 20.1251 19.3812 20.6183C19.8573 20.1251 20.1514 19.4569 20.1514 18.7193C20.1514 17.9817 19.8573 17.3135 19.3812 16.8203Z" fill="#EE8B28"/>
</svg>
