<svg width="28" height="28" viewBox="0 0 28 28" fill="none" xmlns="http://www.w3.org/2000/svg">
<g clip-path="url(#clip0_4218_7613)">
<path d="M22.0482 2.60126C21.84 2.25584 21.4723 2.03225 21.0698 2.00674C14.9536 1.61897 9.4927 18.0957 9.4927 18.0957L8.2793 20.8235L9.75728 21.7267L11.2353 22.6299L13.0964 20.2944C13.0964 20.2944 25.2159 7.85867 22.0482 2.60126Z" fill="#79D5CF"/>
<path d="M14.8674 7.79186L4.32992 6.57846C3.71865 6.50548 3.12564 6.79742 2.80632 7.32657L2.58736 7.68238C2.14032 8.42137 2.3684 9.38845 3.11652 9.84461L10.9717 14.6161C11.6651 15.0358 12.5683 14.8624 13.0518 14.2056L15.953 10.2825C16.6738 9.31546 16.0716 7.92871 14.8674 7.78274V7.79186Z" fill="#79D5CF"/>
<path d="M19.4279 10.5689L25.3581 19.3638C25.7047 19.8747 25.7139 20.5316 25.3946 21.0608L25.1756 21.4166C24.7286 22.1556 23.7615 22.3928 23.0134 21.9457L15.1582 17.1742C14.4648 16.7546 14.2094 15.8696 14.5652 15.1397L16.7092 10.7605C17.2383 9.67486 18.7437 9.5745 19.4188 10.5689H19.4279Z" fill="#79D5CF"/>
<path d="M10.9425 19.5229L10.979 19.4591H10.906L10.8695 19.3952L10.833 19.45L5.82434 19.1398C5.31344 19.1124 4.8299 19.3587 4.5562 19.7966L4.42847 20.0065C4.10003 20.5356 4.27338 21.2381 4.80253 21.5574L8.05956 23.5372L8.57959 23.8565L11.8366 25.8363C12.3658 26.1647 13.0683 25.9914 13.3876 25.4622L13.5153 25.2524C13.7799 24.8145 13.7799 24.2671 13.5153 23.8291L10.9334 19.5229H10.9425Z" fill="#79D5CF"/>
<path d="M20.4494 6.47417C20.0626 5.72237 19.3321 5.24487 18.4883 5.19238" stroke="white" stroke-width="1.4" stroke-linecap="round"/>
</g>
<defs>
<clipPath id="clip0_4218_7613">
<rect width="28" height="28" fill="white"/>
</clipPath>
</defs>
</svg>
