<svg width="28" height="28" viewBox="0 0 28 28" fill="none" xmlns="http://www.w3.org/2000/svg">
<path fill-rule="evenodd" clip-rule="evenodd" d="M13.498 2.99878C7.6974 2.99878 2.99805 7.69813 2.99805 13.4988C2.99805 19.2994 7.6974 23.9988 13.498 23.9988C19.2987 23.9988 23.998 19.2994 23.998 13.4988C23.998 7.69813 19.2912 2.99878 13.498 2.99878Z" fill="#8EA5CE"/>
<path d="M11.7949 11.1003V15.9003" stroke="white" stroke-width="1.4" stroke-linecap="round"/>
<path d="M15.2012 11.1003V15.9003" stroke="white" stroke-width="1.4" stroke-linecap="round"/>
<path d="M20.999 26.9988C23.7599 26.9988 25.998 24.7606 25.998 21.9998C25.998 19.2389 23.7599 17.0007 20.999 17.0007C18.2381 17.0007 16 19.2389 16 21.9998C16 24.7606 18.2381 26.9988 20.999 26.9988Z" fill="#576C91"/>
<path d="M23.0176 21.7221L20.258 19.8998C20.0275 19.7436 19.7144 19.9056 19.7144 20.1775V23.8163C19.7144 24.0882 20.0275 24.2502 20.258 24.094L23.0176 22.2717C23.2185 22.1386 23.2185 21.8436 23.0176 21.7105V21.7221Z" fill="white"/>
</svg>
