<svg width="28" height="28" viewBox="0 0 28 28" fill="none" xmlns="http://www.w3.org/2000/svg">
<path d="M16.8047 2H8C6.34315 2 5 3.34315 5 5V22C5 23.6569 6.34315 25 8 25H20C21.6569 25 23 23.6569 23 22V8.1953C23 7.48037 22.716 6.79473 22.2105 6.28921L18.7107 2.78951C18.2052 2.284 17.5196 2 16.8047 2Z" fill="#8EA5CE"/>
<path d="M11.1953 2H20C21.6569 2 23 3.34315 23 5V22C23 23.6569 21.6569 25 20 25H8C6.34315 25 5 23.6569 5 22V8.1953C5 7.48037 5.284 6.79473 5.78953 6.28921L9.28928 2.78951C9.7948 2.284 10.4804 2 11.1953 2Z" fill="#8EA5CE"/>
<path d="M8 10.0859H19" stroke="white" stroke-width="1.442" stroke-linecap="round" stroke-linejoin="round"/>
<path d="M8 7H14" stroke="white" stroke-width="1.4" stroke-linecap="round" stroke-linejoin="round"/>
<path d="M8 17H13.762" stroke="white" stroke-width="1.41645" stroke-linecap="round" stroke-linejoin="round"/>
<path d="M21.999 26.9988C24.7599 26.9988 26.998 24.7607 26.998 21.9998C26.998 19.2389 24.7599 17.0007 21.999 17.0007C19.2381 17.0007 17 19.2389 17 21.9998C17 24.7607 19.2381 26.9988 21.999 26.9988Z" fill="#576C91"/>
<path d="M24.0178 21.7221L21.2582 19.8998C21.0278 19.7436 20.7146 19.9055 20.7146 20.1774V23.8163C20.7146 24.0882 21.0278 24.2502 21.2582 24.094L24.0178 22.2717C24.2188 22.1386 24.2188 21.8436 24.0178 21.7105V21.7221Z" fill="white"/>
</svg>
