<svg width="28" height="28" viewBox="0 0 28 28" fill="none" xmlns="http://www.w3.org/2000/svg">
<g clip-path="url(#clip0_986_27798)">
<path d="M4 8.16271C4 7.70542 4.23668 7.2807 4.62558 7.04013L13.3056 1.67074C13.7311 1.40751 14.2689 1.40751 14.6944 1.67074L23.3744 7.04013C23.7633 7.2807 24 7.70542 24 8.16271V23.0212C24 23.7502 23.409 24.3412 22.68 24.3412H5.32C4.59098 24.3412 4 23.7502 4 23.0212V8.16271Z" fill="#79D5CF"/>
<path d="M8 12.6721C11.3137 9.35835 16.6863 9.35835 20 12.6721" stroke="#08B6AC" stroke-width="1.66154" stroke-linecap="round"/>
<path d="M10.9504 14.8842C12.619 13.2156 15.3244 13.2156 16.993 14.8842" stroke="#08B6AC" stroke-width="1.66154" stroke-linecap="round"/>
<circle cx="14.081" cy="17.7589" r="0.856951" fill="#08B6AC" stroke="#08B6AC" stroke-width="0.588819"/>
<path d="M21.3102 26.7589C24.0716 26.7589 26.3102 24.5203 26.3102 21.7589C26.3102 18.9975 24.0716 16.7589 21.3102 16.7589C18.5488 16.7589 16.3102 18.9975 16.3102 21.7589C16.3102 24.5203 18.5488 26.7589 21.3102 26.7589Z" fill="#059183"/>
<path d="M23.1852 21.4839C23.1852 20.9089 22.7227 20.4464 22.1477 20.4464H20.3727H19.4352L20.3727 19.5714" stroke="white" stroke-width="0.8125" stroke-linecap="round" stroke-linejoin="round"/>
<path d="M19.4352 22.0275C19.4352 22.6025 19.8977 23.065 20.4727 23.065H22.2477M22.2477 23.0712H23.1852L22.2477 23.9462" stroke="white" stroke-width="0.8125" stroke-linecap="round" stroke-linejoin="round"/>
</g>
<defs>
<clipPath id="clip0_986_27798">
<rect width="28" height="28" fill="white"/>
</clipPath>
</defs>
</svg>
